<mxfile host="Electron" agent="Mozilla/5.0 (X11; Linux x86_64) AppleWebKit/537.36 (KHTML, like Gecko) draw.io/28.1.2 Chrome/138.0.7204.243 Electron/37.4.0 Safari/537.36" version="28.1.2">
  <diagram name="Page-1" id="Zw9uV29fOMbzmkmFfnGz">
    <mxGraphModel dx="3006" dy="3764" grid="1" gridSize="10" guides="1" tooltips="1" connect="1" arrows="1" fold="1" page="1" pageScale="1" pageWidth="850" pageHeight="1100" math="0" shadow="0">
      <root>
        <mxCell id="0" />
        <mxCell id="1" parent="0" />
        <mxCell id="Mzz-BDC9I92ozBuERBgb-29" value="" style="rounded=0;whiteSpace=wrap;html=1;fillColor=#e1d5e7;strokeColor=#9673a6;" vertex="1" parent="1">
          <mxGeometry x="-310" y="-1340" width="430" height="360" as="geometry" />
        </mxCell>
        <mxCell id="Mzz-BDC9I92ozBuERBgb-30" value="&lt;font face=&quot;Courier New&quot; style=&quot;font-size: 19px;&quot;&gt;SegmentationVisualizer&lt;/font&gt;" style="text;html=1;align=center;verticalAlign=middle;whiteSpace=wrap;rounded=0;" vertex="1" parent="1">
          <mxGeometry x="-217.5" y="-1320" width="245" height="30" as="geometry" />
        </mxCell>
        <mxCell id="Mzz-BDC9I92ozBuERBgb-31" value="&lt;div&gt;&lt;font face=&quot;Courier New&quot;&gt;&amp;nbsp;def forward(&lt;/font&gt;&lt;/div&gt;&lt;div&gt;&lt;font face=&quot;Courier New&quot;&gt;&amp;nbsp; &amp;nbsp; &amp;nbsp;self,&lt;/font&gt;&lt;/div&gt;&lt;div&gt;&lt;font face=&quot;Courier New&quot;&gt;&amp;nbsp; &amp;nbsp; &amp;nbsp;predictions: Tensor,&lt;/font&gt;&lt;/div&gt;&lt;div&gt;&lt;font face=&quot;Courier New&quot;&gt;&amp;nbsp; &amp;nbsp; &amp;nbsp;targets: Tensor,&lt;/font&gt;&lt;/div&gt;&lt;div&gt;&lt;font face=&quot;Courier New&quot;&gt;&amp;nbsp;): ...&lt;/font&gt;&lt;/div&gt;&lt;div&gt;&lt;br&gt;&lt;/div&gt;" style="text;html=1;align=left;verticalAlign=middle;whiteSpace=wrap;rounded=0;labelBackgroundColor=none;spacing=0;labelBorderColor=none;textShadow=0;fontSize=17;fillColor=#E6E6E6;shadow=1;" vertex="1" parent="1">
          <mxGeometry x="-240" y="-1200" width="290" height="160" as="geometry" />
        </mxCell>
        <mxCell id="Mzz-BDC9I92ozBuERBgb-32" value="&amp;nbsp;supported_tasks = [Tasks.SEGMENTATION]" style="text;html=1;align=left;verticalAlign=middle;whiteSpace=wrap;rounded=0;fontSize=17;fontFamily=Courier New;textShadow=0;fillColor=#E6E6E6;shadow=1;" vertex="1" parent="1">
          <mxGeometry x="-299.5" y="-1270.5" width="409" height="40" as="geometry" />
        </mxCell>
        <mxCell id="Mzz-BDC9I92ozBuERBgb-45" value="" style="rounded=0;whiteSpace=wrap;html=1;fillColor=#e1d5e7;strokeColor=#9673a6;" vertex="1" parent="1">
          <mxGeometry x="743.5" y="-1730" width="540" height="510" as="geometry" />
        </mxCell>
        <mxCell id="Mzz-BDC9I92ozBuERBgb-46" value="&lt;font face=&quot;Courier New&quot; style=&quot;font-size: 19px;&quot;&gt;ReconstructionSegmentationLoss&lt;/font&gt;" style="text;html=1;align=center;verticalAlign=middle;whiteSpace=wrap;rounded=0;" vertex="1" parent="1">
          <mxGeometry x="810.5" y="-1690" width="394.5" height="30" as="geometry" />
        </mxCell>
        <mxCell id="Mzz-BDC9I92ozBuERBgb-47" value="&lt;div&gt;&lt;font face=&quot;Courier New&quot;&gt;&amp;nbsp;def forward(&lt;/font&gt;&lt;/div&gt;&lt;div&gt;&lt;font face=&quot;Courier New&quot;&gt;&amp;nbsp; &amp;nbsp; &amp;nbsp;self,&lt;/font&gt;&lt;/div&gt;&lt;div&gt;&lt;font face=&quot;Courier New&quot;&gt;&amp;nbsp; &amp;nbsp; &amp;nbsp;predictions: Tensor,&lt;/font&gt;&lt;/div&gt;&lt;div&gt;&lt;font face=&quot;Courier New&quot;&gt;&amp;nbsp; &amp;nbsp; &amp;nbsp;reconstruction: Tensor,&lt;/font&gt;&lt;/div&gt;&lt;div&gt;&lt;font face=&quot;Courier New&quot;&gt;&amp;nbsp; &amp;nbsp; &amp;nbsp;target_original_segmentation: Tensor,&lt;/font&gt;&lt;/div&gt;&lt;div&gt;&lt;font face=&quot;Courier New&quot;&gt;&amp;nbsp; &amp;nbsp; &amp;nbsp;target_segmentation: Tensor,&lt;/font&gt;&lt;/div&gt;&lt;div&gt;&lt;font face=&quot;Courier New&quot;&gt;&amp;nbsp;): ...&lt;/font&gt;&lt;/div&gt;&lt;div&gt;&lt;br&gt;&lt;/div&gt;" style="text;html=1;align=left;verticalAlign=middle;whiteSpace=wrap;rounded=0;labelBackgroundColor=light-dark(#E6E6E6,#515151);spacing=0;labelBorderColor=none;textShadow=1;fontSize=17;" vertex="1" parent="1">
          <mxGeometry x="796" y="-1466" width="444" height="195.5" as="geometry" />
        </mxCell>
        <mxCell id="Mzz-BDC9I92ozBuERBgb-53" value="&amp;nbsp;supported_tasks = [Tasks.ANOMALY_DETECTION]" style="text;html=1;align=left;verticalAlign=middle;whiteSpace=wrap;rounded=0;fontSize=17;fontFamily=Courier New;textShadow=0;fillColor=#E6E6E6;shadow=1;" vertex="1" parent="1">
          <mxGeometry x="779.12" y="-1640" width="457.25" height="40" as="geometry" />
        </mxCell>
        <mxCell id="Mzz-BDC9I92ozBuERBgb-56" value="" style="group" vertex="1" connectable="0" parent="1">
          <mxGeometry x="207.5" y="-1860" width="440" height="563" as="geometry" />
        </mxCell>
        <mxCell id="Mzz-BDC9I92ozBuERBgb-2" value="" style="rounded=0;whiteSpace=wrap;html=1;fillColor=#ffe6cc;strokeColor=#d79b00;" vertex="1" parent="Mzz-BDC9I92ozBuERBgb-56">
          <mxGeometry width="440" height="563" as="geometry" />
        </mxCell>
        <mxCell id="Mzz-BDC9I92ozBuERBgb-10" value="&lt;font face=&quot;Courier New&quot;&gt;DiscSubNet&lt;/font&gt;" style="text;html=1;align=center;verticalAlign=middle;whiteSpace=wrap;rounded=0;fontSize=20;" vertex="1" parent="Mzz-BDC9I92ozBuERBgb-56">
          <mxGeometry x="140" y="16" width="160" height="30" as="geometry" />
        </mxCell>
        <mxCell id="Mzz-BDC9I92ozBuERBgb-12" value="&lt;div&gt;&amp;nbsp;def forward(&lt;/div&gt;&lt;div&gt;&amp;nbsp; &amp;nbsp; &amp;nbsp; self,&lt;/div&gt;&lt;div&gt;&amp;nbsp; &amp;nbsp; &amp;nbsp; reconstruction: Tensor,&lt;/div&gt;&lt;div&gt;&amp;nbsp; &amp;nbsp; &amp;nbsp; original: Tensor&lt;/div&gt;&lt;div&gt;&amp;nbsp; ) -&amp;gt; Packet[Tensor]:&lt;/div&gt;&lt;div&gt;&amp;nbsp; &amp;nbsp; &amp;nbsp;&amp;nbsp;&lt;span style=&quot;background-color: transparent;&quot;&gt;if self.export:&lt;/span&gt;&lt;/div&gt;&lt;div&gt;&amp;nbsp; &amp;nbsp; &amp;nbsp; &amp;nbsp; &amp;nbsp; return {&lt;/div&gt;&lt;div&gt;&amp;nbsp; &amp;nbsp; &amp;nbsp; &amp;nbsp; &amp;nbsp; &amp;nbsp; &amp;nbsp; &quot;segmentation&quot;: ...,&lt;/div&gt;&lt;div&gt;&amp;nbsp; &amp;nbsp; &amp;nbsp; &amp;nbsp; &amp;nbsp; }&lt;/div&gt;&lt;div&gt;&lt;br&gt;&lt;/div&gt;&lt;div&gt;&amp;nbsp; &amp;nbsp; &amp;nbsp; return {&lt;/div&gt;&lt;div&gt;&amp;nbsp;&lt;span style=&quot;background-color: transparent; color: light-dark(rgb(0, 0, 0), rgb(255, 255, 255));&quot;&gt;&amp;nbsp; &amp;nbsp; &amp;nbsp; &amp;nbsp; &amp;nbsp;&quot;segmentation&quot;: ...,&lt;/span&gt;&lt;/div&gt;&lt;div&gt;&amp;nbsp; &amp;nbsp; &amp;nbsp; &amp;nbsp; &amp;nbsp; &quot;reconstruction&quot;: ...,&amp;nbsp;&lt;span style=&quot;background-color: transparent; color: light-dark(rgb(0, 0, 0), rgb(255, 255, 255));&quot;&gt;&lt;/span&gt;&lt;/div&gt;&lt;div&gt;&amp;nbsp; &amp;nbsp; &amp;nbsp; }&lt;/div&gt;" style="text;html=1;align=left;verticalAlign=middle;whiteSpace=wrap;rounded=0;fontSize=17;fontFamily=Courier New;textShadow=0;fillColor=#E6E6E6;shadow=1;" vertex="1" parent="Mzz-BDC9I92ozBuERBgb-56">
          <mxGeometry x="35.75" y="213" width="368.5" height="310" as="geometry" />
        </mxCell>
        <mxCell id="Mzz-BDC9I92ozBuERBgb-17" value="&amp;nbsp;attach_index = -1" style="text;html=1;align=left;verticalAlign=middle;whiteSpace=wrap;rounded=0;fontSize=17;fontFamily=Courier New;textShadow=0;fillColor=#E6E6E6;shadow=1;" vertex="1" parent="Mzz-BDC9I92ozBuERBgb-56">
          <mxGeometry x="107.25" y="63" width="225.5" height="40" as="geometry" />
        </mxCell>
        <mxCell id="Mzz-BDC9I92ozBuERBgb-28" value="&amp;nbsp;task = Tasks.ANOMALY_DETECTION" style="text;html=1;align=left;verticalAlign=middle;whiteSpace=wrap;rounded=0;fontSize=17;fontFamily=Courier New;textShadow=0;fillColor=#E6E6E6;shadow=1;" vertex="1" parent="Mzz-BDC9I92ozBuERBgb-56">
          <mxGeometry x="56" y="123" width="328" height="40" as="geometry" />
        </mxCell>
        <mxCell id="Mzz-BDC9I92ozBuERBgb-57" value="" style="group" vertex="1" connectable="0" parent="1">
          <mxGeometry x="-311" y="-1909" width="440" height="423" as="geometry" />
        </mxCell>
        <mxCell id="Mzz-BDC9I92ozBuERBgb-3" value="" style="rounded=0;whiteSpace=wrap;html=1;fillColor=#ffe6cc;strokeColor=#d79b00;" vertex="1" parent="Mzz-BDC9I92ozBuERBgb-57">
          <mxGeometry width="440" height="423" as="geometry" />
        </mxCell>
        <mxCell id="Mzz-BDC9I92ozBuERBgb-4" value="&lt;font face=&quot;Courier New&quot;&gt;RecSubNet&lt;/font&gt;" style="text;html=1;align=center;verticalAlign=middle;whiteSpace=wrap;rounded=0;fontSize=20;" vertex="1" parent="Mzz-BDC9I92ozBuERBgb-57">
          <mxGeometry x="100" y="6" width="240" height="50" as="geometry" />
        </mxCell>
        <mxCell id="Mzz-BDC9I92ozBuERBgb-6" value="&amp;nbsp;def forward(&lt;div&gt;&amp;nbsp; &amp;nbsp; &amp;nbsp;inputs: Tensor&lt;/div&gt;&lt;div&gt;&amp;nbsp;) -&amp;gt; Packet[Tensor]:&lt;div&gt;&lt;span style=&quot;background-color: transparent;&quot;&gt;&amp;nbsp; &amp;nbsp; &amp;nbsp;return {&lt;/span&gt;&lt;/div&gt;&lt;div&gt;&amp;nbsp; &amp;nbsp; &amp;nbsp; &amp;nbsp; &amp;nbsp;&quot;reconstruction&quot;: ...,&lt;/div&gt;&lt;div&gt;&amp;nbsp; &amp;nbsp; &amp;nbsp; &amp;nbsp; &amp;nbsp;&quot;original&quot;: inputs,&lt;/div&gt;&lt;div&gt;&amp;nbsp; &amp;nbsp; }&lt;/div&gt;&lt;/div&gt;" style="text;html=1;align=left;verticalAlign=middle;whiteSpace=wrap;rounded=0;fontSize=17;fontFamily=Courier New;textShadow=0;fillColor=#E6E6E6;shadow=1;" vertex="1" parent="Mzz-BDC9I92ozBuERBgb-57">
          <mxGeometry x="63" y="213" width="330" height="167" as="geometry" />
        </mxCell>
        <mxCell id="Mzz-BDC9I92ozBuERBgb-9" value="&amp;nbsp;attach_index = -1" style="text;html=1;align=left;verticalAlign=middle;whiteSpace=wrap;rounded=0;fontSize=17;fontFamily=Courier New;textShadow=0;fillColor=#E6E6E6;shadow=1;" vertex="1" parent="Mzz-BDC9I92ozBuERBgb-57">
          <mxGeometry x="122.5" y="63" width="195" height="40" as="geometry" />
        </mxCell>
        <mxCell id="Mzz-BDC9I92ozBuERBgb-23" value="&amp;nbsp;task = None" style="text;html=1;align=left;verticalAlign=middle;whiteSpace=wrap;rounded=0;fontSize=17;fontFamily=Courier New;textShadow=0;fillColor=#E6E6E6;shadow=1;" vertex="1" parent="Mzz-BDC9I92ozBuERBgb-57">
          <mxGeometry x="150" y="123" width="140" height="40" as="geometry" />
        </mxCell>
        <mxCell id="Mzz-BDC9I92ozBuERBgb-48" value="" style="endArrow=block;html=1;rounded=0;entryX=0.095;entryY=0.317;entryDx=0;entryDy=0;entryPerimeter=0;strokeWidth=2;endFill=0;dashed=1;dashPattern=1 1;" edge="1" parent="1">
          <mxGeometry width="50" height="50" relative="1" as="geometry">
            <mxPoint x="576" y="-1380" as="sourcePoint" />
            <mxPoint x="841" y="-1380" as="targetPoint" />
          </mxGeometry>
        </mxCell>
        <mxCell id="Mzz-BDC9I92ozBuERBgb-50" value="" style="endArrow=block;html=1;rounded=0;entryX=0.095;entryY=0.317;entryDx=0;entryDy=0;entryPerimeter=0;strokeWidth=2;endFill=0;dashed=1;dashPattern=1 1;" edge="1" parent="1">
          <mxGeometry width="50" height="50" relative="1" as="geometry">
            <mxPoint x="560" y="-1401" as="sourcePoint" />
            <mxPoint x="840" y="-1401" as="targetPoint" />
          </mxGeometry>
        </mxCell>
        <mxCell id="Mzz-BDC9I92ozBuERBgb-58" value="&amp;nbsp;node: DiscSubNet" style="text;html=1;align=left;verticalAlign=middle;whiteSpace=wrap;rounded=0;fontSize=17;fontFamily=Courier New;textShadow=0;fillColor=#E6E6E6;shadow=1;" vertex="1" parent="1">
          <mxGeometry x="779.12" y="-1580" width="185.88" height="40" as="geometry" />
        </mxCell>
        <mxCell id="Mzz-BDC9I92ozBuERBgb-52" value="If the attached modules specify a class-level type annotation for the&amp;nbsp;&lt;font style=&quot;background-color: rgb(223, 223, 223);&quot; face=&quot;Courier New&quot;&gt;node&lt;/font&gt;&amp;nbsp;attribute, the engine will check whether the module is connected for a compatible node before running" style="shape=callout;whiteSpace=wrap;html=1;perimeter=calloutPerimeter;align=center;size=30;position=0.08;position2=0;fontSize=17;flipV=1;base=40;" vertex="1" parent="1">
          <mxGeometry x="957.73" y="-1560" width="385.5" height="130" as="geometry" />
        </mxCell>
        <mxCell id="Mzz-BDC9I92ozBuERBgb-60" value="" style="endArrow=block;html=1;rounded=0;entryX=0.095;entryY=0.317;entryDx=0;entryDy=0;entryPerimeter=0;strokeWidth=2;endFill=0;dashed=1;dashPattern=1 1;" edge="1" parent="1">
          <mxGeometry width="50" height="50" relative="1" as="geometry">
            <mxPoint x="53" y="-1568.71" as="sourcePoint" />
            <mxPoint x="297" y="-1568.71" as="targetPoint" />
          </mxGeometry>
        </mxCell>
        <mxCell id="Mzz-BDC9I92ozBuERBgb-61" value="" style="endArrow=block;html=1;rounded=0;entryX=0.095;entryY=0.317;entryDx=0;entryDy=0;entryPerimeter=0;strokeWidth=2;endFill=0;dashed=1;dashPattern=1 1;" edge="1" parent="1">
          <mxGeometry width="50" height="50" relative="1" as="geometry">
            <mxPoint x="73" y="-1589.71" as="sourcePoint" />
            <mxPoint x="297" y="-1589.71" as="targetPoint" />
          </mxGeometry>
        </mxCell>
        <mxCell id="Mzz-BDC9I92ozBuERBgb-64" style="edgeStyle=orthogonalEdgeStyle;rounded=0;orthogonalLoop=1;jettySize=auto;html=1;dashed=1;strokeWidth=2;dashPattern=1 2;endArrow=block;endFill=0;movable=1;resizable=1;rotatable=1;deletable=1;editable=1;locked=0;connectable=1;" edge="1" parent="1">
          <mxGeometry relative="1" as="geometry">
            <mxPoint x="378" y="-1480.52" as="sourcePoint" />
            <mxPoint x="20" y="-1130" as="targetPoint" />
            <Array as="points">
              <mxPoint x="162.97" y="-1480.52" />
              <mxPoint x="162.97" y="-1129.52" />
            </Array>
          </mxGeometry>
        </mxCell>
        <mxCell id="Mzz-BDC9I92ozBuERBgb-66" value="&lt;font style=&quot;font-size: 33px;&quot; face=&quot;Courier New&quot;&gt;Anomaly Detection Model&lt;/font&gt;" style="text;html=1;align=center;verticalAlign=middle;whiteSpace=wrap;rounded=0;labelBackgroundColor=default;labelBorderColor=none;" vertex="1" parent="1">
          <mxGeometry x="151" y="-2010" width="600" height="70" as="geometry" />
        </mxCell>
        <mxCell id="Mzz-BDC9I92ozBuERBgb-68" value="" style="rounded=1;whiteSpace=wrap;html=1;fillColor=#dae8fc;strokeColor=#6c8ebf;" vertex="1" parent="1">
          <mxGeometry x="194.25" y="-1250" width="466.5" height="370" as="geometry" />
        </mxCell>
        <mxCell id="Mzz-BDC9I92ozBuERBgb-69" value="&lt;font face=&quot;Courier New&quot; style=&quot;font-size: 19px;&quot;&gt;PerlinLoaderTorch&lt;/font&gt;" style="text;html=1;align=center;verticalAlign=middle;whiteSpace=wrap;rounded=0;" vertex="1" parent="1">
          <mxGeometry x="285.5" y="-1226" width="284" height="30" as="geometry" />
        </mxCell>
        <mxCell id="Mzz-BDC9I92ozBuERBgb-70" value="&lt;div&gt;&lt;font face=&quot;Courier New&quot;&gt;&amp;nbsp;def get(&lt;/font&gt;&lt;span style=&quot;font-family: &amp;quot;Courier New&amp;quot;; background-color: transparent; color: light-dark(rgb(0, 0, 0), rgb(255, 255, 255));&quot;&gt;self, idx: int&lt;/span&gt;&lt;span style=&quot;font-family: &amp;quot;Courier New&amp;quot;; background-color: transparent; color: light-dark(rgb(0, 0, 0), rgb(255, 255, 255));&quot;&gt;):&lt;/span&gt;&lt;/div&gt;&lt;div&gt;&lt;span style=&quot;font-family: &amp;quot;Courier New&amp;quot;; background-color: transparent; color: light-dark(rgb(0, 0, 0), rgb(255, 255, 255));&quot;&gt;&amp;nbsp; &amp;nbsp; &amp;nbsp;...&lt;/span&gt;&lt;/div&gt;&lt;div&gt;&lt;span style=&quot;font-family: &amp;quot;Courier New&amp;quot;; background-color: transparent; color: light-dark(rgb(0, 0, 0), rgb(255, 255, 255));&quot;&gt;&amp;nbsp; &amp;nbsp; &amp;nbsp;return {&lt;/span&gt;&lt;/div&gt;&lt;div&gt;&lt;span style=&quot;font-family: &amp;quot;Courier New&amp;quot;; background-color: transparent; color: light-dark(rgb(0, 0, 0), rgb(255, 255, 255));&quot;&gt;&amp;nbsp; &amp;nbsp; &amp;nbsp; &amp;nbsp; &amp;nbsp;&lt;/span&gt;&lt;span style=&quot;background-color: transparent;&quot;&gt;&lt;font face=&quot;Courier New&quot;&gt;&quot;/original_segmentation&quot;: ...,&lt;/font&gt;&lt;/span&gt;&lt;/div&gt;&lt;div&gt;&lt;font face=&quot;Courier New&quot;&gt;&amp;nbsp; &amp;nbsp; &amp;nbsp; &amp;nbsp; &amp;nbsp;&quot;/segmentation&quot;: ...,&lt;/font&gt;&lt;/div&gt;&lt;div&gt;&lt;br&gt;&lt;/div&gt;&lt;div&gt;&lt;span style=&quot;font-family: &amp;quot;Courier New&amp;quot;; background-color: transparent; color: light-dark(rgb(0, 0, 0), rgb(255, 255, 255));&quot;&gt;&amp;nbsp; &amp;nbsp; &amp;nbsp;}&lt;/span&gt;&lt;/div&gt;&lt;div&gt;&lt;br&gt;&lt;/div&gt;" style="text;html=1;align=left;verticalAlign=middle;whiteSpace=wrap;rounded=0;labelBackgroundColor=none;spacing=0;labelBorderColor=none;textShadow=0;fontSize=17;fillColor=#E6E6E6;shadow=1;" vertex="1" parent="1">
          <mxGeometry x="217" y="-1170" width="421" height="230" as="geometry" />
        </mxCell>
        <mxCell id="Mzz-BDC9I92ozBuERBgb-62" value="The arguments are extracted from the packet sent by the previous node based on their names." style="shape=callout;whiteSpace=wrap;html=1;perimeter=calloutPerimeter;align=center;size=80;position=0.26;position2=0.16;fontSize=17;base=29;flipH=1;flipV=1;" vertex="1" parent="1">
          <mxGeometry x="-165" y="-1550.5" width="350" height="171.5" as="geometry" />
        </mxCell>
        <mxCell id="Mzz-BDC9I92ozBuERBgb-71" style="edgeStyle=orthogonalEdgeStyle;rounded=0;orthogonalLoop=1;jettySize=auto;html=1;dashed=1;strokeWidth=2;dashPattern=1 2;endArrow=block;endFill=0;movable=1;resizable=1;rotatable=1;deletable=1;editable=1;locked=0;connectable=1;" edge="1" parent="1">
          <mxGeometry relative="1" as="geometry">
            <mxPoint x="616" y="-1061" as="sourcePoint" />
            <mxPoint x="840" y="-1357" as="targetPoint" />
            <Array as="points">
              <mxPoint x="700" y="-1061" />
              <mxPoint x="700" y="-1357" />
            </Array>
          </mxGeometry>
        </mxCell>
        <mxCell id="Mzz-BDC9I92ozBuERBgb-72" style="edgeStyle=orthogonalEdgeStyle;rounded=0;orthogonalLoop=1;jettySize=auto;html=1;dashed=1;strokeWidth=2;dashPattern=1 2;endArrow=block;endFill=0;movable=1;resizable=1;rotatable=1;deletable=1;editable=1;locked=0;connectable=1;" edge="1" parent="1">
          <mxGeometry relative="1" as="geometry">
            <mxPoint x="533" y="-1040" as="sourcePoint" />
            <mxPoint x="840" y="-1336" as="targetPoint" />
            <Array as="points">
              <mxPoint x="720" y="-1040" />
              <mxPoint x="720" y="-1336" />
            </Array>
          </mxGeometry>
        </mxCell>
        <mxCell id="Mzz-BDC9I92ozBuERBgb-73" value="The anomaly detection model uses a custom loader. Loss arguments with the&amp;nbsp;&lt;font style=&quot;background-color: rgb(223, 223, 223);&quot; face=&quot;Courier New&quot;&gt;target_&lt;/font&gt;&amp;nbsp;prefix are matched against the task types returned by the loader." style="shape=callout;whiteSpace=wrap;html=1;perimeter=calloutPerimeter;align=center;size=30;position=0.08;position2=0;fontSize=17;flipV=1;base=40;" vertex="1" parent="1">
          <mxGeometry x="743.5" y="-1160" width="369" height="150" as="geometry" />
        </mxCell>
      </root>
    </mxGraphModel>
  </diagram>
</mxfile>
